<?xml version="1.0" encoding="UTF-8"?>
<svg width="658px" height="90px" viewBox="0 0 658 90" version="1.1" xmlns="http://www.w3.org/2000/svg" xmlns:xlink="http://www.w3.org/1999/xlink">
    <!-- Generator: Sketch 55.2 (78181) - https://sketchapp.com -->
    <title>Contour_LOGO</title>
    <desc>Created with Sketch.</desc>
    <g id="Designs" stroke="none" stroke-width="1" fill="none" fill-rule="evenodd">
        <g id="Desktop---Scroll" transform="translate(-184.000000, -194.000000)" fill="#FFFFFF" fill-rule="nonzero" stroke="#FFFFFF">
            <g id="Contour_LOGO" transform="translate(185.000000, 195.000000)">
                <path d="M198.455962,21.04293 C198.455962,16.4598945 198.418334,11.8810869 198.485228,7.29805141 C198.510313,5.63226177 197.870636,3.29423721 200.617485,3.21390725 C202.519792,3.15894465 204.973978,1.80179115 205.985755,5.20524462 C207.135501,9.08644995 210.496942,9.30207246 213.854201,8.58755863 C215.396952,8.26201091 216.989873,7.01901051 218.453186,7.95337475 C224.35243,11.7077433 231.230004,14.9589926 236.012949,19.1953409 C244.056992,26.3320235 251.603509,35.2063699 253.572711,46.9134042 C254.346177,51.564086 258.284581,54.160012 262.415306,54.984451 C268.210027,56.1471215 271.696895,60.3158235 275.973951,63.4613755 C277.152964,64.3280935 278.336157,66.0488457 278.382147,67.414455 C278.599554,74.2636409 274.590074,79.5569623 270.308837,84.1230862 C267.077005,87.5688186 261.909417,85.3576308 257.607276,85.4717839 C256.03944,85.5140629 255.571179,83.7214364 254.735,82.6602354 C247.31391,73.2531746 239.972257,63.7869232 232.400655,54.4982434 C232.007651,54.0162637 230.728296,47.2812309 228.407899,53.9401616 C227.952182,55.2508083 226.936224,53.4201308 226.242195,53.0945831 C223.068895,51.5852255 220.932458,48.9850716 219.322813,45.9071658 C214.661114,37.0285915 212.980394,36.1534178 202.804093,38.5548607 C199.563899,39.3201093 198.347258,38.740888 198.443419,35.3712577 C198.556303,30.6191065 198.451781,25.8204485 198.455962,21.04293 Z" id="Path"></path>
                <path d="M441.019755,59.3998282 C439.536149,54.0170211 435.282308,50.5623837 436.883261,44.6510213 C437.855568,41.0779875 435.881617,37.2935316 433.530479,34.1306568 C426.71595,24.9380231 427.122475,13.4704875 434.343529,5.19542588 C435.898381,3.4194801 437.482571,3.72392794 439.19668,4.39625027 C466.438032,15.1026663 477.401628,49.9281173 455.66303,72.7659344 C453.014332,75.5482495 451.237358,74.6898757 450.700913,71.7637936 C449.791471,66.8207445 443.731318,63.2434823 446.824259,57.2686932 C447.201447,56.5371727 446.501554,55.7887384 445.600493,55.5434888 C442.947605,54.8161967 442.666809,57.46743 441.019755,59.3998282 Z" id="Path"></path>
                <path d="M527.882526,87.2149646 C504.619274,91.2466494 484.684134,79.4471112 479.629093,58.7652015 C479.294494,57.4188429 479.075723,56.0459456 478.975207,54.6617485 C478.45126,47.2611795 478.488984,47.1725247 485.773944,48.4052492 C492.388253,49.523989 495.867261,44.8843852 499.21214,40.8822521 C501.940856,37.6146877 502.037263,32.8104392 500.746257,28.9940591 C498.738492,23.0499625 492.363103,21.9734394 486.390106,26.4610634 C484.080547,28.2003871 482.38715,27.6895663 480.333278,26.9549975 C477.885397,26.0726707 479.046463,23.9449544 478.929099,22.3111721 C478.8788,21.6525933 479.557836,20.3185489 479.767415,20.3481005 C485.778136,21.0404526 490.9715,15.2821092 497.27144,18.2752657 C509.297074,24.0082792 511.137176,26.4272901 507.926428,39.556651 C507.130029,42.8284371 506.170157,46.0706715 505.587528,49.3804526 C505.004899,52.6902336 506.425844,55.1978993 508.794085,57.8491014 C513.245539,62.8095513 517.843699,67.7024546 520.383795,74.2164751 C522.135874,78.6829908 526.235236,82.0687617 527.882526,87.2149646 Z" id="Path"></path>
                <path d="M134.911391,87.9284008 C132.820705,87.739175 130.813646,87.5331292 128.814951,87.3817486 C124.36179,87.0327322 123.015389,84.724178 121.066869,80.4897262 C115.969778,69.4263273 113.707656,58.1316524 113.360602,46.2146351 C113.373592,45.6153294 113.249113,45.0210706 112.996822,44.4779632 C109.124872,37.5186605 109.986235,32.2287495 118.252806,29.3062629 C119.63684,28.818481 120.301678,27.31729 120.385306,25.9422496 C120.970698,16.3548115 129.91047,11.0649005 132.71617,2.60861188 C133.276474,0.926605195 135.262626,0.960245328 136.918449,0.968655362 C143.948261,1.02589529 150.90248,2.43316768 157.407169,5.11480183 C159.610752,6.00626537 161.228943,6.87670383 158.381429,9.01705733 C157.616238,9.59314462 156.70888,10.5014282 156.608527,11.3340215 C155.742983,19.8281553 147.911275,21.7120028 142.584207,25.9927098 C140.978561,27.2836499 139.276742,27.1448843 137.482934,27.2247797 C128.860946,27.6074362 122.333825,32.5651509 120.205507,40.2855615 C118.114821,47.8545916 121.016693,55.1671156 128.56825,59.3342872 C133.673705,62.1516484 134.229827,67.1976684 136.048724,71.6045259 C137.027165,73.9761553 137.453664,76.6253159 139.347826,78.4671132 C141.73957,80.7882824 142.814183,83.9126098 141.802291,86.5239252 C140.70259,89.3034412 137.169331,87.1546777 134.911391,87.9284008 Z" id="Path"></path>
                <path d="M135.823789,61.9557317 C151.492667,60.1907949 159.308389,47.3971147 151.904459,35.401456 C150.623329,33.3282887 149.063513,31.4577935 146.938003,30.3135403 C143.356663,28.3839324 144.562922,26.3741001 147.158457,25.3987403 C153.218864,23.1144561 156.637983,19.3354648 158.509763,12.9175129 C160.027984,7.7155941 163.501176,7.54247829 168.030884,11.2285783 C175.825808,17.5620833 181.274768,25.407185 183.608253,35.3465656 C184.348646,38.4879842 184.31537,39.4295653 180.634203,40.4133697 C175.12701,41.9038546 169.158111,41.1142776 163.996158,44.6061501 C156.034854,50.0107411 153.688889,60.6383626 159.150327,68.5890227 C160.714304,70.8690845 163.234967,72.718468 161.995433,76.467903 C160.023825,82.4425095 153.609858,87.2728627 147.021193,87.0237448 C145.927241,86.9772991 144.858247,86.9899662 144.708505,85.7908225 C143.618713,77.2279236 136.522586,71.0210887 135.823789,61.9557317 Z" id="Path"></path>
                <path d="M129.080764,1.93406593 C128.833316,6.7660065 125.142567,9.50241961 122.949088,12.934531 C120.696892,16.4594021 118.012711,19.6216669 117.86592,24.0614866 C117.748487,27.278564 114.695231,27.923666 112.648543,29.285548 C108.186092,32.2369951 105.439001,35.2306058 108.873914,40.9521968 C111.23096,44.8860542 111.650363,49.7517256 111.310647,54.2674397 C110.677348,62.7591747 113.474768,70.1757396 117.274561,77.4826794 C118.314681,79.4854471 119.895832,81.6357871 118.302099,84.1318681 C100.867505,79.2999276 86.6497342,59.0572167 88.8474073,41.8334146 C91.5357823,20.7010532 109.003929,2.85744725 129.080764,1.93406593 Z" id="Path"></path>
                <path d="M337.46702,85.0989011 C328.71853,85.0989011 326.963721,83.4214042 327.943347,74.9668199 C328.371353,71.6443654 328.566321,68.2968192 328.526864,64.9479697 C328.505567,63.966634 328.241494,62.6875427 328.756863,62.0375126 C335.810174,53.0922605 330.328525,42.6833923 332.517777,33.2558598 C334.259808,25.7448674 331.461484,19.9952469 326.776314,14.543382 C326.407652,14.0702674 326.096058,13.5565858 325.847798,13.0126661 C321.805774,5.22488675 323.134659,3.78643316 331.883149,2.9854284 C339.179237,2.33539835 342.216079,5.46812379 342.825151,11.5238876 C343.434223,17.5796513 347.054582,22.0375993 350.231979,26.8268529 C351.173272,28.2443378 353.294377,30.2783028 349.047909,30.6012209 C345.781067,30.844458 347.088656,33.6039404 347.071619,35.2730498 C346.965138,48.8943245 347.016249,62.5323742 347.00773,76.1410677 C347.003471,85.0989011 346.999212,85.0989011 337.46702,85.0989011 Z" id="Path"></path>
                <path d="M316.526051,56.211624 C316.526051,49.092826 316.462501,42.0159034 316.551471,34.9180431 C316.585364,32.2924629 316.445554,30.1023857 312.806258,30.4248253 C312.242781,30.4750757 311.255637,30.3117621 311.111591,30.0060725 C307.557027,21.8697053 299.215031,17.0707979 295.677414,8.91349302 C293.762441,4.44958797 294.745347,2.74945153 299.786981,3.15982929 C302.617074,3.38595581 305.485297,3.18495446 308.336574,3.20170457 C312.204651,3.22682974 316.466738,2.30138601 319.830651,3.57858211 C323.516551,4.97721652 321.826121,9.83474923 323.147961,12.9753954 C323.269736,13.3529696 323.470363,13.7010646 323.736858,13.9971523 C332.133931,21.7608295 330.282508,31.7522718 330.134225,41.3835866 C330.079148,45.1272368 330.108805,48.870887 330.176591,52.6145372 C330.214721,54.7753018 330.748541,57.0240044 327.846424,58.0206361 C326.770311,58.3891386 326.439851,59.4485832 326.537294,60.4577775 C327.147374,66.9191335 324.952781,73.3134891 326.189888,79.8167204 C326.520348,81.5671072 328.147228,84.4690642 324.397778,84.8710669 C321.491424,85.180944 318.280031,85.8216358 317.220864,81.5629196 C316.195591,77.4423919 316.678571,73.3344267 316.559944,69.222274 C316.437081,64.8881824 316.534524,60.5499032 316.526051,56.211624 Z" id="Path"></path>
                <path d="M531.30497,48.10954 C531.693063,45.2219028 532.786401,44.5159415 535.060711,45.5578724 C539.538388,47.6247231 542.78919,45.6897086 545.797956,42.7000047 C548.397763,40.1185677 551.114415,37.8901114 555.049596,37.724253 C558.571646,37.5796585 561.150588,39.0000867 561.421836,42.521388 C562.81146,60.5957 556.071992,76.9263724 537.330847,84.4537917 C533.266301,86.086859 530.800032,84.5048251 528.379666,81.000535 C524.002141,74.6723994 521.727832,67.0769356 515.359765,60.8678778" id="Path"></path>
                <path d="M607.835536,3.95790661 C609.517936,2.73406595 611.465315,2.66207532 612.638789,3.28881725 C616.00359,5.08434818 618.947791,4.6608739 622.312592,3.24646982 C624.069108,2.52807784 626.085841,3.07508763 627.246232,4.58464853 C632.545793,11.3305937 639.902089,14.9174208 647.99023,17.0432617 C652.974341,18.3517972 652.284557,22.7898076 653.773481,25.9573952 C655.064724,28.693039 651.842927,29.2266166 650.627392,30.8146451 C646.841991,35.7608247 642.345776,39.7414829 637.643467,43.870357 C630.661505,50.0064993 630.947513,58.9121633 636.52467,66.6532731 C638.446813,69.321161 637.588789,70.193518 635.45214,71.6418 C631.502705,74.3181574 627.708892,77.2147215 623.515509,80.2637363 C622.47242,78.1760081 621.61019,76.185679 620.51663,74.3350964 C617.963587,70.0198935 616.970971,66.8438365 624.213705,67.707724 C627.818248,68.1311983 628.806658,65.831733 628.062196,62.7064928 C626.131641,54.5800215 628.596358,46.1401792 626.018079,37.9925341 C625.130613,35.1848997 626.514387,32.1231807 628.54168,29.7009078 C629.883394,28.0790013 632.638325,26.78317 631.351289,24.3270192 C629.912836,21.565967 626.573271,21.4939763 623.873019,21.3923425 C618.670195,21.2017791 610.834415,14.5405287 611.255015,9.60281869 C611.519993,6.60885557 608.689354,5.95247044 607.835536,3.95790661 Z" id="Path"></path>
                <path d="M67.5116259,34.8131868 C61.7806108,28.2316071 52.9822331,28.2146334 46.4105025,23.6402021 C45.5531393,23.0418767 44.0881304,23.0758242 42.9311062,23.1734234 C35.6060614,23.7802357 34.8735569,23.2710226 31.2776258,13.4771568 C29.5004701,8.6311452 33.3835762,5.75409104 35.5894136,2.35084997 C35.9838426,1.88287846 36.5429118,1.59177457 37.1459856,1.54035241 C52.1956231,0.220641724 66.8706845,0.38613599 79.3732042,10.8759264 C82.5529395,13.536565 80.0474413,15.1193691 78.6989671,16.6257913 C74.0500608,21.8664431 70.1711166,27.5526563 67.5116259,34.8131868 Z" id="Path"></path>
                <path d="M30.4481739,3.86813187 C24.6723958,9.42719464 27.8484518,14.2887324 30.377687,19.467327 C33.3837452,25.6224566 37.5217398,28.3026435 44.3879913,24.848838 C44.3009193,28.3237806 41.7965618,27.6389379 40.5070665,28.3068709 C33.6574001,31.8621347 29.9215954,37.1041406 30.3154927,45.0347883 C30.6554882,51.8367138 34.9012863,57.2943184 41.9250967,60.160512 C43.3845898,60.7523514 45.7230958,60.2112411 46.1667485,62.6208728 C46.6394252,65.1996016 44.6657925,66.0028122 42.9326445,66.9328455 C36.7380915,70.2302363 36.7671155,76.3008174 36.6427269,81.9740206 C36.5556548,86.0788495 35.3988407,86.9666086 31.8247412,85.2122275 C28.0930828,83.3902077 22.0685275,83.8974986 23.7602127,76.7573792 C23.9260642,76.0683091 22.4209619,74.9395868 21.6165822,74.0771923 C19.8253862,72.1579417 18.2995525,70.02732 17.5573671,67.5246849 C16.2181163,62.9041103 19.2241745,59.7335421 23.7104572,60.8368998 C29.540137,62.2742241 31.1364575,60.8960838 29.5484295,55.1256498 C28.3460063,50.7544932 26.6874914,46.5777982 27.1394367,41.8769025 C27.3384585,39.839284 25.7628694,38.1990435 24.4402038,36.689853 C23.6607018,35.7978665 22.1721847,35.1214787 21.9897481,34.1533985 C20.6422047,27.0428711 19.7963621,19.8477952 14.7378918,13.9970402 C13.7220515,12.8260437 15.6334898,11.5916358 16.6825005,10.746151 C20.5426938,7.65590392 24.7345902,5.15749624 30.4481739,3.86813187 Z" id="Path"></path>
                <path d="M20.9076001,79.2967033 C-2.41166202,68.8156216 -7.38078477,32.8319721 11.8894054,16.4395604 C15.6586462,20.6068385 19.2328531,24.7657317 18.5163157,30.9328001 C18.3424812,32.4085364 18.6011131,34.768876 19.5678025,35.3893561 C27.2885982,40.3448115 23.6762325,49.1950368 27.2504394,55.5381874 C28.6623147,58.053647 27.9712166,59.7935066 24.4309286,58.7831303 C21.920928,58.0704167 19.2498125,56.7959172 17.2485959,59.6216168 C15.0905042,62.6527456 14.178933,65.7719155 15.6247272,69.5996066 C16.9051667,72.9787073 20.4157756,75.2006966 20.9076001,79.2967033 Z" id="Path"></path>
                <path d="M561.583187,37.7603565 C554.323574,34.2609257 549.009486,36.6718337 544.791349,41.1152179 C540.411793,45.7286837 536.193656,45.3034795 529.809104,41.6552272 C537.387308,40.9493882 540.921538,37.6285432 542.272361,31.4503258 C543.019986,28.048692 542.663165,25.7908576 539.468765,24.7150909 C529.592463,21.3984979 530.705405,13.5109595 530.89656,5.87854367 C530.960278,3.38259486 532.374819,2.90211409 534.460524,2.90211409 C542.229882,2.92762634 550.003488,2.99140697 557.772846,2.90211409 C560.746357,2.85959366 561.642658,4.15221451 561.595931,6.88627768 C561.527965,16.9168454 561.583187,26.9261529 561.583187,37.7603565 Z" id="Path"></path>
                <path d="M641.197391,84.9601868 C637.571216,84.9601868 633.945041,85.0479765 630.323059,84.9142017 C628.906126,84.8640362 626.826839,85.8673469 626.256713,83.6600634 C625.770428,81.7872167 626.839416,80.2153633 628.352767,79.1117215 C631.734402,76.6536103 635.155164,74.2456646 638.615051,71.8878844 C641.323154,70.0401205 642.178344,68.6480269 639.675655,65.3872671 C633.282688,57.0514274 633.680939,53.1092524 639.981679,44.7232471 C640.895559,43.5067329 641.910049,42.7040843 643.335367,42.5661291 C646.890275,42.2191508 648.692883,40.3922892 649.095325,36.9183259 C649.216896,35.8648497 649.988244,34.7403056 650.772169,33.9418375 C651.677665,33.022136 652.587352,31.3875756 654.184546,32.0773517 C655.78174,32.7671279 655.090042,34.5020193 654.922357,35.7519772 C653.916251,43.226642 650.906316,49.8693949 644.722955,54.4929851 C641.671099,56.7796974 641.897473,58.4100773 643.591085,61.1817231 C647.301102,67.243392 650.420032,73.6604 654.339654,79.5757527 C657.693342,84.6257499 655.685321,85.3406088 650.835051,85.0103524 C647.628087,84.8055097 644.39597,84.9727282 641.193199,84.9727282 L641.197391,84.9601868 Z" id="Path"></path>
                <path d="M164.419662,79.2967033 C167.086917,73.8785348 164.107581,70.130437 161.473614,66.0763721 C155.331852,56.629636 160.940995,45.0921242 172.130153,43.7067729 C174.506132,43.4135544 176.969495,43.1755799 179.179031,42.3469188 C183.681325,40.6471013 185.354081,41.6499936 184.871395,46.6899527 C183.51072,60.9259249 176.532581,71.5157884 164.419662,79.2967033 Z" id="Path"></path>
                <path d="M435.104223,52.2197802 C436.476398,56.7802266 438.275564,59.8302867 442.222122,62.2611301 C446.78222,65.0894437 446.78222,71.58285 449.659227,76.0679863 C450.455171,77.323155 448.639423,77.9549233 447.73984,78.5783237 C441.10697,83.1806091 433.678156,85.8206474 425.714567,86.9461153 C421.498549,87.5360446 419.52527,85.0424427 422.128671,81.8417625 C427.932432,74.6914845 426.153994,68.2148139 421.428074,61.3908798 C427.202817,60.056217 431.236431,56.7091004 435.104223,52.2197802 Z" id="Path"></path>
                <path d="M404.697607,54.1538462 C408.078431,57.5928127 412.22387,60.1144893 416.767366,61.4958974 C421.970699,63.1402776 424.5559,72.9894749 421.70724,77.8542779 C420.797479,79.4004224 419.035591,80.9679226 419.097339,82.4670849 C419.381382,89.5400557 414.861398,88.0195378 410.938314,87.4899192 C408.802138,87.1383822 406.695128,86.617198 404.635859,85.9309613 C397.423643,83.7227935 397.431876,83.6971668 401.754266,77.9055313 C403.981325,74.9157489 403.40089,71.4433303 403.376191,68.0819607 C403.326792,63.5204071 402.454081,58.8990578 404.697607,54.1538462 Z" id="Path"></path>
                <path d="M598.71229,4.45750971 C590.03201,6.0660302 586.601253,13.0140032 581.967832,18.7336514 C579.883214,21.3114621 578.921083,23.8516711 580.393819,27.3695263 C582.305422,31.9652992 580.815806,37.3047516 584.672771,41.7710073 C587.592923,45.1384554 590.513076,46.8681371 594.846886,46.8305354 C597.074979,46.8305354 599.332612,46.7845776 601.311732,48.0212583 C602.545709,48.7685325 603.202278,50.1791745 602.974362,51.5934272 C602.645212,53.8954916 600.771588,52.8468198 599.632223,52.5292937 C597.100298,51.8273938 594.939723,52.6755228 592.597693,53.4317364 C584.617912,56.0011912 578.03491,51.4806219 578.03069,43.5675366 C578.03069,31.5851034 578.174165,19.5984923 577.975831,7.63694892 C577.916753,4.03971218 579.001261,2.72364995 582.773828,2.92001479 C587.795477,3.18322724 592.842446,2.9868624 597.880975,2.9868624 L598.71229,4.45750971 Z" id="Path"></path>
                <path d="M283.14741,19.3554652 C283.14741,23.285202 283.220146,27.2232821 283.091788,31.1530189 C283.049002,32.3753256 283.802032,34.2108714 281.940851,34.7073031 C279.677483,35.3121989 279.373704,33.1846344 278.731918,31.8914089 C277.076108,28.6416585 275.073734,25.7631889 271.458335,24.2238334 C265.896184,21.8543106 265.506834,17.2737894 266.045935,12.380391 C266.191406,11.0371052 267.145529,9.69799111 267.025729,8.42145242 C266.597871,3.86596139 268.76711,2.76046219 273.199717,2.91481491 C284.995755,3.32781272 282.929202,1.80931571 283.14741,12.2760987 C283.215867,14.6331064 283.168803,16.9942858 283.14741,19.3554652 Z" id="Path"></path>
                <path d="M509.037083,21.2747253 C506.364756,19.6931627 504.020755,18.2900967 501.655974,16.9202394 C497.275518,14.3880789 492.720509,13.5993731 487.96601,15.8617133 C486.173272,16.7576113 484.178556,17.1738148 482.17666,17.0696784 C481.241553,17.0115632 480.057084,17.1859087 479.782786,15.8907708 C479.562517,14.844698 479.886687,13.8816468 481.029595,13.5869199 C484.088434,12.8065163 484.11337,10.6811619 484.121682,8.11994379 C484.121682,5.13946632 485.410051,2.8480686 489.13801,2.90203268 C494.736183,2.98505433 500.334356,2.90203268 505.936685,2.90203268 C508.609012,2.90203268 509.797637,3.43337128 509.120204,6.72517996 C508.197565,11.2581624 510.599751,15.899073 509.037083,21.2747253 Z" id="Path"></path>
                <path d="M368.792138,14.5088441 C368.792138,16.4679388 368.979681,18.4479193 368.737959,20.3777737 C368.533746,21.9609227 369.846546,24.2541912 367.625205,25.0102597 C365.891476,25.5950641 364.266104,24.1121673 362.790767,23.1597716 C356.539339,19.11209 353.034371,13.042656 350.192055,6.48866991 C349.13348,4.0408459 349.591918,2.76263063 352.550927,2.9130089 C353.942912,2.98402086 355.339064,2.9130089 356.718546,2.9130089 C368.787971,2.89212303 368.787971,2.89212303 368.792138,14.5088441 Z" id="Path"></path>
                <path d="M478.818946,35.5038892 C479.059307,32.3619167 477.132202,27.1012358 484.3599,29.4322397 C485.0852,29.6657647 486.329174,29.0076488 487.050257,28.4471889 C489.690011,26.3242345 492.034585,23.5856233 495.939398,26.2350704 C499.734572,28.8038452 499.279151,32.6930976 498.292406,35.9454638 C496.871324,40.6159634 493.430366,44.3778386 488.336399,45.2185285 C481.509303,46.3479403 478.823163,43.3927878 478.818946,35.5038892 Z" id="Path"></path>
                <path d="M372.722762,31.9120879 C378.259255,36.7608278 379.919785,42.0587583 379.694487,48.0031875 C379.631904,49.6404244 379.277268,51.1895023 380.670779,52.3313701 C382.869521,54.1407267 382.727667,56.60078 382.339654,58.8593272 C381.751375,62.2765344 381.763892,65.4796414 383.59131,68.548411 C384.321442,69.8078239 384.922237,71.277139 383.432767,72.2007085 C381.726342,73.2586154 381.012898,71.4954373 380.211838,70.492105 C371.21243,59.2329531 368.704946,46.6975961 372.722762,31.9120879 Z" id="Path"></path>
                <path d="M401.359696,41.5824176 C402.661909,52.9167627 399.653922,62.9476373 400.502648,73.1205567 C400.823001,76.9808349 396.970447,78.4890172 394.723817,80.8327576 C393.804363,81.7894716 392.918192,80.7742685 392.11523,80.3564895 C391.120889,79.8342657 390.808857,79.1031524 391.378835,77.9626157 C395.614148,69.607035 394.973443,60.4743854 395.539261,51.5631586 C395.784726,47.4856353 397.706842,44.7324715 401.359696,41.5824176 Z" id="Path"></path>
                <path d="M368.939794,29.0931736 C356.038442,32.1252773 348.937367,27.4063287 345.48279,14.2953266 C344.79614,11.6385458 344.169198,8.93959395 343.546521,6.25751054 C343.256507,5.04719931 341.989829,3.46156509 344.250231,2.9512945 C345.632062,2.63922819 346.216355,3.83688808 346.723879,5.03033086 C347.952173,7.93592123 349.163407,10.8836827 350.754219,13.6079373 C352.750197,17.0195811 354.895446,20.2920602 358.196486,22.8855843 C361.292811,25.3062068 364.798567,27.0689597 368.939794,29.0931736 Z" id="Path"></path>
                <path d="M627.770521,24.6076297 C626.671394,23.3871244 624.953748,22.6222187 622.905946,23.5877554 C621.054566,24.4655161 618.726759,24.9002166 617.761366,22.438307 C616.704032,19.6921701 614.271745,18.760072 612.115284,17.4225319 C609.402991,15.7506069 607.275785,13.6607007 608.119981,10.287592 C609.04776,6.56755882 605.365896,5.41393057 603.865568,3.34074356 C602.611811,1.62702042 601.838662,5.43064982 600.25057,6.0910602 C598.58698,6.77180792 596.977535,7.57804785 595.436146,8.50281202 C593.459391,9.71495766 590.989491,10.0075445 589.614538,12.3733184 C586.012078,18.5886996 580.783915,23.6838911 583.58397,32.4113397 C585.627593,38.7980932 588.920793,44.0144992 595.854065,44.2987265 C599.803397,44.4617392 603.547949,44.7417866 605.487093,48.8463625 C605.745585,49.0741939 606.055263,49.2362258 606.389797,49.3186813 L606.093075,48.8505423 C606.690699,48.0605577 607.233993,47.2245952 607.898484,46.4931281 C614.463987,39.2369735 615.345796,39.2495129 621.271884,46.4178914 C622.0116,47.3123713 622.972813,48.0354789 623.984177,48.9801165 C625.685106,47.4795638 624.53583,45.6989637 624.698818,44.1357138 C624.12209,37.5483293 620.415151,35.6506944 614.121294,37.0300325 C610.280621,37.865995 608.437599,36.5660733 608.437599,32.1438317 C608.437599,27.72159 610.706898,27.4164637 614.062785,27.6505332 C616.821049,27.8386248 619.792452,26.9817632 622.22056,28.8376 C624.648668,30.6934367 625.212858,28.6244295 626.236759,27.320328 C626.930504,26.4634664 628.777705,25.7236396 627.770521,24.6076297 Z" id="Path"></path>
                <path d="M625.032134,44.4835165 C625.141188,44.8123077 625.225076,45.1459341 625.317352,45.4505495 C625.259778,45.1150888 625.163869,44.7899103 625.032134,44.4835165 L625.032134,44.4835165 Z" id="Path"></path>
                <path d="M308.25257,30.441022 C294.667314,31.6462184 294.667314,31.6462184 294.785925,19.1896829 C294.785925,17.8013648 294.785925,16.408788 294.785925,13.5384615 C300.030249,19.4026152 304.952628,23.8103123 308.25257,30.441022 Z" id="Path"></path>
                <path d="M281.870827,38.7572288 C275.682366,34.4268193 273.162838,26.4373816 265.879112,23.1350248 C265.254436,22.8538838 265.321068,21.2971184 264.829656,20.4704802 C262.214344,16.0393635 264.32575,11.708954 265.037881,7.35336766 C265.525129,4.3531324 264.363231,2.49004924 261.214862,3.26213776 C258.328857,3.96708814 252.715099,0.459120754 253.102398,6.66939795 C253.518849,13.1230509 249.86241,20.3194194 255.900948,26.0974948 C256.43817,26.6094231 256.229944,28.560625 255.6719,29.3872633 C252.456899,34.13309 254.039413,38.7446404 255.338739,43.6247434 C256.52146,48.0768407 258.828598,51.2575097 263.251307,52.3946618 C270.805726,54.3458638 275.994705,59.3308701 280.896332,64.8278046 C282.94527,72.8801843 276.186272,78.1043702 273.937437,84.8643408 C283.032725,85.4853685 283.007738,85.4853685 283.007738,76.8161573 C283.007738,65.9439761 283.07437,55.0717948 282.974422,44.1996136 C282.966093,42.3868841 283.969739,40.2174832 281.870827,38.7572288 Z" id="Path"></path>
                <path d="M608.798364,68.6593407 C608.798364,74.3282057 608.763913,78.2907814 608.798364,82.2490263 C608.824201,84.3450773 607.764857,85.115939 605.783969,85.0986163 C601.761906,85.0639708 597.739843,85.0986163 593.386197,84.3883841 C599.531255,80.7376177 602.605937,74.3671819 608.798364,68.6593407 Z" id="Path"></path>
                <path d="M530.906549,22.2417582 C533.076582,23.3925404 534.656331,24.1512979 536.146902,25.0407303 C540.05381,27.3675865 540.622859,33.5809672 537.119382,36.3841545 C535.668324,37.5295576 533.775083,37.966095 531.963962,37.5728745 C530.129414,37.1513426 530.970248,35.2628796 530.932029,34.0320063 C530.834356,30.3478173 530.906549,26.6425516 530.906549,22.2417582 Z" id="Path"></path>
                <path d="M206.152329,83.5889447 C207.723189,83.5889447 209.306683,83.4967523 210.873331,83.5889447 C216.714571,84.008001 221.759853,82.9435978 224.594139,77.177382 C225.057395,76.2345052 225.92916,74.8264757 227.344197,75.7064941 C227.925373,76.0710732 227.959064,77.3827197 228.098041,78.2962626 C228.839251,83.0232186 227.706379,85.6507021 221.818813,85.0011647 C216.659823,84.4144857 211.37449,84.8754478 206.143906,84.8754478 C206.143906,84.4480102 206.148117,84.0163822 206.152329,83.5889447 Z" id="Path"></path>
                <path d="M428.66373,8.7032967 C425.542854,14.6291468 425.261022,20.0470669 426.218422,25.5623402 C426.384206,26.514709 426.769652,27.6236895 425.414372,27.9665423 C423.976199,28.3305588 423.304776,27.3570263 422.794991,26.1718562 C420.515467,20.8682204 422.770124,13.2492703 428.66373,8.7032967 Z" id="Path"></path>
                <path d="M415.957572,17.4065934 C413.427958,11.7812424 417.873443,6.95298907 417.736595,1.44803302 C417.690979,-0.536408155 420.879951,-0.0714344915 422.318928,0.459963981 C425.055888,1.47709387 423.49665,3.49474745 422.406013,4.65303006 C419.01799,8.26487905 415.240157,11.581968 415.957572,17.4065934 Z" id="Path"></path>
                <path d="M421.920705,10.6373626 C419.788417,16.0485145 420.318005,21.6371522 420.290132,28.043956 C416.699155,22.97046 417.61432,14.7498381 421.920705,10.6373626 Z" id="Path"></path>
                <path d="M224.508993,68.0506314 C222.763968,66.9524706 222.25708,65.3872758 224.367729,63.7884209 C228.522549,60.6201638 226.108598,56.774497 223.77359,54.9231914 C219.531519,51.5571811 216.548358,47.6736468 214.632986,42.8097619 C212.858878,38.3245533 208.866096,39.864503 205.841387,40.0622561 C203.124135,40.2221415 198.325318,40.2852542 198.383485,43.3946062 C198.51644,50.9933744 195.134416,59.1096667 200.627088,66.1993258 C202.289016,68.3367423 200.273928,68.8374363 199.07734,69.712599 C196.530436,74.0673748 198.346092,78.7797891 197.968003,83.3112805 C197.872442,84.4473089 198.603691,85.2046612 199.77535,85.0868509 C200.53547,85.0363214 201.257459,84.7314306 201.827831,84.2201032 C202.704498,83.2692053 201.915082,82.4024577 201.242001,81.6955955 C199.845982,80.2355886 198.250531,78.8513169 200.282238,76.751768 C201.877689,76.751768 203.381734,76.6928628 204.653109,78.072927 C209.485164,83.315488 217.225593,82.9620569 221.646322,77.3871024 C222.381725,76.4614496 222.950935,75.1949882 223.914853,74.6942942 C227.749752,72.7041406 228.913102,70.8065523 224.508993,68.0506314 Z" id="Path"></path>
                <path d="M218.956268,3.11622946 C216.442267,3.04030103 213.932375,2.93062663 211.418374,2.9010989 C210.222991,2.9010989 208.879726,3.1288842 209.048148,4.67276235 C209.187815,5.97620046 210.485893,6.65955637 211.656629,6.48660827 C214.121335,6.12805733 216.549071,5.45735617 218.993238,4.91742064 L231.189427,14.5054945 C228.732937,8.56198545 225.816367,3.34823301 218.956268,3.11622946 Z" id="Path"></path>
                <path d="M78.0264317,24.1758242 C78.1468902,20.4837259 80.8652355,18.782465 82.5074854,16.3492194 C82.9090135,15.7298478 83.3747862,15.0742791 84.2420869,15.7740886 C84.9969597,16.3773726 84.8765013,17.081204 84.2902702,17.6925318 C82.2183852,19.8683762 80.1143779,22.0160674 78.0264317,24.1758242 Z" id="Path"></path>
                <path d="M411.500319,1.0444003 C405.858271,1.91206099 400.005226,2.42170635 395.633377,6.70946647 L395.608058,6.68840674 L395.608058,6.68840674 C395.59761,6.72584094 395.589158,6.76380173 395.582738,6.80212926 C397.95012,5.23949762 400.596016,5.77441465 402.946518,6.46517365 C405.233721,7.13908487 407.444965,8.81965096 407.13269,11.5195078 C406.900594,13.5328175 406.398422,16.0557727 403.866463,16.7002003 C401.203686,17.3741115 398.756126,16.7633794 396.945776,14.4004782 C395.135425,12.037577 394.86957,9.51883385 395.582738,6.81897704 L395.46036,6.88636816 C395.46036,6.88636816 395.574298,6.74737397 395.599618,6.70946647 C386.737762,9.3461441 381.627426,16.1400116 376.711206,23.1360524 C374.411343,26.4129457 373.428099,29.4034267 377.529872,32.2085821 C379.589199,33.6153718 380.167329,36.0498761 380.990216,38.3159025 C382.412333,42.2330115 382.294175,46.5965866 383.589694,50.2146475 C384.691096,53.2935793 385.573061,56.2208812 385.159508,59.1692428 C384.745955,62.1176043 384.918972,64.6447714 386.328429,67.1719385 C387.266242,68.7385774 387.432652,70.6478929 386.779962,72.3526309 C386.193391,73.7931162 384.547618,75.2462372 386.914999,76.1728652 C389.370999,77.1289767 390.290944,74.7913472 390.510381,73.2497753 C391.19823,68.3681309 392.970601,63.680236 392.675206,58.6006302 C392.164594,49.9872024 394.23236,42.8395316 401.861996,36.7532709 C406.605198,32.9625203 413.386628,29.0664711 412.736758,20.8321184 C412.314765,15.7398768 412.521542,10.5928799 414.707466,5.63963241 C415.70759,3.35675816 415.319356,0.454727983 411.500319,1.0444003 Z" id="Path"></path>
                <path d="M615.801288,50.4504963 C614.68643,48.5977882 612.002026,50.3844755 610.725404,48.2140424 C612.474201,46.8028482 613.2393,43.262484 616.544527,44.9130035 C620.601737,46.8895005 622.739642,54.9357829 620.269465,56.9617956 C618.808776,58.20335 616.649733,58.3721744 614.992469,57.3744255 C613.50162,56.4625135 611.752822,54.9481618 611.494875,53.4833258 C610.952747,50.5660326 615.272277,53.3141476 615.801288,50.4504963 Z" id="Path"></path>
                <path d="M403.618209,11.7633941 C403.524423,13.3813651 403.157095,14.6600174 401.422055,14.490358 C399.284519,14.2627662 398.338844,12.6572093 397.905084,10.6916435 C397.580742,9.17298523 398.479523,8.60193664 399.761264,8.71780157 C401.703413,8.91228913 403.379836,9.53713216 403.618209,11.7633941 Z" id="Path"></path>
                <path d="M79.9578283,66.0528068 C77.0681749,63.3939232 74.1827156,60.730872 71.2469284,58.021978 C69.9006603,60.9767562 68.5501982,63.6731476 67.4345991,66.4612246 C67.3758834,66.6112557 67.3087797,66.7571192 67.233288,66.9071503 L67.1577963,67.0613488 L66.998425,67.3739135 C66.9480972,67.4614317 66.9019634,67.5531173 66.8558296,67.6448029 C66.8096958,67.7364886 66.7551741,67.8281742 66.7090403,67.9198599 C66.5539241,68.2055178 66.4139339,68.4990341 66.2896421,68.7992085 C66.2896421,68.8450513 66.2602843,68.8867266 66.2435083,68.9284019 C66.2099565,69.0325902 66.1764046,69.1326109 66.1470467,69.2367991 C66.1176889,69.3409873 66.1218829,69.3368198 66.1134949,69.3868301 C66.1051069,69.4368405 66.079943,69.5868715 66.0673611,69.6868922 L66.0673611,69.8244207 C66.0647621,69.9640956 66.0760001,70.1036858 66.1009129,70.2411736 C66.1009129,70.3036866 66.1386588,70.3661995 66.1554347,70.4287124 C66.2129254,70.6276909 66.3021297,70.8162304 66.4196556,70.9871614 C66.5091462,71.1205311 66.6116994,71.2447733 66.7258162,71.3580715 C67.2064783,71.8177116 67.7624497,72.1925984 68.369857,72.4666342 C68.5610476,72.5601217 68.7435037,72.6702996 68.9150746,72.795869 L69.0283121,72.8833871 C69.1624883,72.9849887 69.2836198,73.1025569 69.3889946,73.2334596 L69.3889946,73.2334596 C69.4744893,73.3463318 69.5423568,73.4713758 69.5903057,73.6043697 C69.5903057,73.6377099 69.5903057,73.6668826 69.6196635,73.7002229 C69.7051023,74.0206718 69.6661797,74.3613278 69.51062,74.654587 L69.51062,74.654587 C69.4619322,74.7530983 69.4058541,74.8478297 69.3428608,74.937979 L69.3428608,74.937979 C69.2293875,75.0874664 69.103096,75.2269053 68.9654024,75.3547319 L68.9024927,75.4130774 C68.753561,75.5502603 68.5952054,75.6769813 68.4285728,75.7923225 C68.3947946,75.8121342 68.3625512,75.8344229 68.3321112,75.859003 C68.15177,75.9756938 67.9630408,76.0840496 67.7659237,76.1882378 L67.6694621,76.2340806 C67.4538525,76.3402832 67.2326499,76.4348838 67.006813,76.5174726 L67.006813,76.5174726 C66.2560903,78.717928 64.259755,79.7931505 62.6031323,81.1851053 C61.5839947,82.0186111 59.9609238,82.8771221 61.0471651,84.4524482 C61.8314396,85.5943512 63.3664369,84.9483842 64.4023504,84.5899766 C69.51062,82.8104417 74.321117,80.4432851 78.6073662,77.1384344 C85.288379,72.008206 85.3009609,72.0207086 79.9578283,66.0528068 Z" id="Path"></path>
                <path d="M66.7108539,70.5934066 C66.8154022,69.6116045 67.0563969,68.6397477 67.4302496,67.6923077 C66.7168992,68.6680136 66.112365,69.6350466 66.7108539,70.5934066 Z" id="Path"></path>
                <path d="M65.5036711,54.3875304 C65.7953091,54.2696356 66.1355535,54.088583 66.4669604,53.9201619 C66.1297768,54.0438126 65.8069548,54.2004393 65.5036711,54.3875304 Z" id="Path"></path>
                <path d="M67.4448251,59.8699226 C68.1006969,58.4707636 69.9674089,54.7169223 65.4982313,54.1538462 C62.0969475,58.1977569 57.4259631,59.9083141 52.4648816,61.0643266 C51.1279122,61.3757248 49.1014366,61.0643266 49.0341677,62.7706181 C48.8912212,66.9638294 45.5950451,68.132639 42.9253106,70.1204686 C39.9108229,72.3642419 37.3083573,82.5849278 39.1414349,85.6349238 C41.5084593,89.5977857 45.6875398,87.2772293 49.0467806,87.7293965 C51.053919,87.9330502 53.0793402,87.8483222 55.063143,87.4777186 C56.1268325,87.3113551 58.123878,87.0255513 57.8548024,85.7458327 C56.6775966,80.2003854 62.4080661,79.9572389 64.396703,76.9072429 C62.0843345,70.6238246 64.8591767,65.3641811 67.4448251,59.8699226 Z" id="Path"></path>
                <path d="M624.11819,58.729904 C624.201407,58.3506209 624.222212,57.954666 624.272142,57.567047 L624.272142,57.567047 L623.402521,53.1865355 C623.040525,57.8671391 621.272157,59.580165 618.02668,60.0386391 C614.664699,60.509617 612.251396,59.2550652 610.466383,56.6417629 C608.831162,54.2493618 607.337411,51.7610978 605.785407,49.3186813 L605.182081,49.3186813 C606.226459,54.7786909 604.641169,57.3503138 598.591267,55.1538061 C597.88808,54.8953934 596.893633,54.7370115 596.265342,55.0412715 C590.198797,57.8296276 584.36526,57.2252754 578.22382,53.0156497 C578.22382,62.1017725 578.132281,70.1042294 578.282072,78.1400298 C578.32368,80.2823541 576.875699,83.4416574 579.917293,84.325262 C582.8299,85.1588513 586.32919,85.6923484 589.179384,83.9084674 C596.668946,79.2236958 602.648113,72.617501 607.487202,65.7320537 C610.678588,61.214 612.168178,62.1226123 615.542642,64.0148599 C618.40948,65.6236871 621.783943,64.698403 624.525955,64.0148599 C626.352576,63.5730576 623.697943,60.6429913 624.11819,58.729904 Z" id="Path"></path>
            </g>
        </g>
    </g>
</svg>